<?xml version="1.0" encoding="utf-8"?>
<!-- Generator: Adobe Illustrator 26.4.1, SVG Export Plug-In . SVG Version: 6.00 Build 0)  -->
<svg version="1.1" id="Layer_1" xmlns="http://www.w3.org/2000/svg" xmlns:xlink="http://www.w3.org/1999/xlink" x="0px" y="0px"
	 viewBox="0 0 143.6 42.5" style="enable-background:new 0 0 143.6 42.5;" xml:space="preserve">
<g>
	<path id="XMLID_25_" style="fill:#FFFFFF;" d="M28.4,21.1c0-3,2.5-4.5,2.6-4.5c-1.3-2-3.6-2.4-4.3-2.4c-1.9-0.2-3.6,1.1-4.4,1.1
		c-1,0-2.4-1.1-4-1c-2,0-3.8,1.1-4.9,3c-2.1,3.6-0.5,9,1.4,12c1,1.5,2.3,3,3.7,3c1.4-0.1,2.1-1,3.8-1c1.8,0,2.4,1,3.8,0.8
		c1.7,0,2.6-1.5,3.6-2.9c1.1-1.7,1.7-3.2,1.7-3.4C31.5,26,28.4,24.7,28.4,21.1z"/>
	<path id="XMLID_24_" style="fill:#FFFFFF;" d="M25.4,12.3c0.8-1,1.3-2.4,1.2-3.7c-1.1,0-2.6,0.8-3.5,1.8c-0.7,0.8-1.3,2.4-1.2,3.6
		C23.2,14.1,24.6,13.4,25.4,12.3z"/>
</g>
<path style="fill:#FFFFFF;" d="M50.5,28.6h-5.1l-1.2,3.6h-2.3l5-13.5h2.3L54,32.3h-2.3L50.5,28.6z M45.8,26.9h4.1l-2-6L45.8,26.9z
	 M64.5,27.4c0,3.1-1.7,5-4.1,5c-1.3,0-2.5-0.6-3.1-1.8v4.9h-2V22.3h2V24c0.6-1,1.8-1.8,3.1-1.8C62.7,22.2,64.5,24.2,64.5,27.4z
	 M62.4,27.4c0-2-1-3.4-2.6-3.4c-1.4,0-2.6,1.3-2.6,3.4s1,3.4,2.6,3.4C61.4,30.6,62.4,29.4,62.4,27.4z M75.3,27.4c0,3.1-1.7,5-4.1,5
	c-1.3,0-2.5-0.6-3.1-1.8v4.9h-2V22.3H68V24c0.6-1,1.8-1.8,3.1-1.8C73.6,22.2,75.3,24.2,75.3,27.4z M73.2,27.4c0-2-1-3.4-2.6-3.4
	c-1.4,0-2.6,1.3-2.6,3.4s1,3.4,2.6,3.4C72.2,30.6,73.2,29.4,73.2,27.4z M82.4,28.4c0.1,1.3,1.4,2.3,3.2,2.3c1.8,0,3-0.8,3-2.2
	c0-1-0.7-1.7-2.5-2.2L84.3,26c-2.5-0.6-3.6-1.8-3.6-3.6c0-2.4,2-4,4.9-4c2.9,0,4.9,1.7,4.9,4h-2c-0.1-1.3-1.2-2.2-2.9-2.2
	c-1.7,0-2.7,0.8-2.7,2c0,1,0.7,1.5,2.5,2l1.4,0.4c2.7,0.6,3.8,1.8,3.8,3.7c0,2.5-2,4.1-5.3,4.1c-3,0-5-1.5-5.1-4
	C80.4,28.6,82.4,28.4,82.4,28.4z M95.1,20.1v2.4h1.9V24h-1.9v5.5c0,0.8,0.4,1.2,1.2,1.2h0.6v1.7c-0.2,0-0.6,0.1-1.1,0.1
	c-2,0-2.7-0.7-2.7-2.6V24h-1.4v-1.7H93V20C93,20,95.1,20.1,95.1,20.1z M97.9,27.4c0-3.1,1.9-5,4.6-5c2.9,0,4.6,2,4.6,5
	c0,3.1-1.9,5-4.6,5C99.8,32.4,97.9,30.5,97.9,27.4z M105.3,27.4c0-2.2-1-3.4-2.6-3.4c-1.7,0-2.6,1.2-2.6,3.4s1,3.4,2.6,3.4
	C104.2,30.7,105.3,29.5,105.3,27.4z M109,22.3h1.9V24c0.2-1.1,1.2-1.8,2.4-1.8c0.2,0,0.5,0,0.7,0.1v1.9c-0.1-0.1-0.5-0.1-0.8-0.1
	c-1.2,0-2.1,0.8-2.1,2.3v5.9h-2C109,32.3,109,22.3,109,22.3z M123.3,29.4c-0.2,1.8-2,3-4.2,3c-2.9,0-4.6-1.9-4.6-5s1.8-5.2,4.6-5.2
	c2.7,0,4.4,1.9,4.4,4.9v0.7h-7.1V28c0,1.8,1,2.8,2.6,2.8c1.1,0,2-0.5,2.3-1.3C121.3,29.4,123.3,29.4,123.3,29.4z M116.4,26.4h5
	c0-1.5-1-2.5-2.4-2.5C117.6,23.9,116.6,24.8,116.4,26.4z M45.6,8.5c1.9,0,3.1,1.1,3.1,3.2s-1.1,3.2-3.1,3.2h-2.4V8.4h2.4V8.5z
	 M44.4,14.1h1.2c1.3,0,2.1-0.8,2.1-2.4s-0.7-2.4-2.1-2.4h-1.2V14.1z M49.8,12.6c0-1.7,0.8-2.5,2.4-2.5c1.3,0,2.4,1,2.4,2.5
	c0,1.7-0.8,2.5-2.4,2.5C50.7,15.1,49.8,14.1,49.8,12.6z M53.4,12.6c0-1.1-0.5-1.8-1.3-1.8s-1.3,0.6-1.3,1.8s0.5,1.8,1.3,1.8
	C52.9,14.2,53.4,13.6,53.4,12.6z M60.5,15h-1l-1-3.6h-0.1l-1,3.6h-1l-1.3-4.9h1l0.8,3.7h0.1l1-3.7h0.8l1,3.7h0.1l0.8-3.7h1
	C61.9,10.2,60.5,15,60.5,15z M63,10.2h0.8v0.7H64c0.2-0.5,0.7-0.8,1.4-0.8c1.1,0,1.8,0.6,1.8,1.9V15h-1v-3c0-0.7-0.4-1.1-1-1.1
	c-0.7,0-1.1,0.5-1.1,1.2V15h-1.1C63,15,63,10.2,63,10.2z M68.7,8.2h1v6.9h-1V8.2z M71,12.6c0-1.7,0.8-2.5,2.4-2.5
	c1.3,0,2.4,1,2.4,2.5c0,1.7-0.8,2.5-2.4,2.5C71.9,15.1,71,14.1,71,12.6z M74.7,12.6c0-1.1-0.5-1.8-1.3-1.8S72,11.5,72,12.6
	s0.5,1.8,1.3,1.8C74.2,14.2,74.7,13.6,74.7,12.6z M76.7,13.6c0-0.8,0.6-1.3,1.9-1.5l1.3-0.1v-0.4c0-0.5-0.4-0.7-1-0.7
	c-0.5,0-0.8,0.2-1,0.5h-1c0.1-0.8,0.8-1.3,2-1.3c1.2,0,1.9,0.6,1.9,1.7V15h-0.8v-0.7h-0.1c-0.2,0.5-0.8,0.7-1.4,0.7
	C77.3,15.1,76.7,14.5,76.7,13.6z M79.8,13.3v-0.4L78.5,13c-0.6,0-1,0.2-1,0.7s0.4,0.7,0.8,0.7C79.3,14.2,79.8,13.9,79.8,13.3z
	 M82,12.6c0-1.5,0.7-2.5,2-2.5c0.6,0,1.2,0.4,1.4,0.8h0.1V8.2h1v6.9h-0.8v-0.7h-0.1c-0.2,0.5-0.8,0.8-1.4,0.8
	C82.8,15.1,82,14.1,82,12.6z M83,12.6c0,1,0.5,1.7,1.3,1.7c0.8,0,1.3-0.6,1.3-1.7S85.1,11,84.3,11C83.5,10.9,83,11.5,83,12.6z
	 M90.6,12.6c0-1.7,0.8-2.5,2.4-2.5c1.3,0,2.4,1,2.4,2.5c0,1.7-0.8,2.5-2.4,2.5S90.6,14.1,90.6,12.6z M94.2,12.6
	c0-1.1-0.5-1.8-1.3-1.8s-1.3,0.6-1.3,1.8s0.5,1.8,1.3,1.8C93.7,14.2,94.2,13.6,94.2,12.6z M96.4,10.2h0.8v0.7h0.1
	c0.2-0.5,0.7-0.8,1.4-0.8c1.1,0,1.8,0.6,1.8,1.9V15h-1v-3c0-0.7-0.4-1.1-1-1.1c-0.7,0-1.1,0.5-1.1,1.2V15h-1L96.4,10.2z M106,8.8
	v1.2h1.1v0.8H106v2.5c0,0.5,0.2,0.7,0.7,0.7h0.4v0.7h-0.5c-1.1,0-1.4-0.4-1.4-1.3v-2.6h-0.7v-0.8h0.7V8.8C105.2,8.8,106,8.8,106,8.8
	z M108.5,8.2h1V11h0.1c0.2-0.5,0.7-0.8,1.4-0.8c1,0,1.8,0.6,1.8,1.9v3.1h-1v-2.9c0-0.7-0.4-1.1-1-1.1c-0.7,0-1.2,0.5-1.2,1.2v2.9h-1
	C108.6,15.2,108.5,8.2,108.5,8.2z M118.3,13.8c-0.2,0.8-1,1.3-2.1,1.3c-1.3,0-2.3-1-2.3-2.5c0-1.7,0.8-2.6,2.3-2.6
	c1.3,0,2.3,0.8,2.3,2.5V13H115c0,0.8,0.5,1.3,1.2,1.3c0.6,0,1-0.2,1.1-0.6C117.4,13.6,118.3,13.8,118.3,13.8z M114.9,12.1h2.5
	c0-0.7-0.5-1.2-1.2-1.2C115.5,10.9,115,11.4,114.9,12.1z"/>
</svg>
