<?xml version="1.0" encoding="utf-8"?>
<!-- Generator: Adobe Illustrator 26.4.1, SVG Export Plug-In . SVG Version: 6.00 Build 0)  -->
<svg version="1.1" id="Layer_1" xmlns="http://www.w3.org/2000/svg" xmlns:xlink="http://www.w3.org/1999/xlink" x="0px" y="0px"
	 viewBox="0 0 143.6 42.5" style="enable-background:new 0 0 143.6 42.5;" xml:space="preserve">
<path style="display:none;fill:#FFFFFF;stroke:#000000;stroke-width:0.25;stroke-miterlimit:10;" d="M49.2,11.2
	c0,0.8-0.2,1.6-0.8,2.1c-0.6,0.6-1.3,1-2.4,1s-1.7-0.4-2.4-1c-0.6-0.6-1-1.4-1-2.4s0.4-1.7,1-2.4c0.6-0.6,1.4-1,2.4-1
	c0.5,0,0.8,0.1,1.3,0.2c0.4,0.1,0.7,0.4,1,0.7L47.7,9c-0.4-0.5-1-0.7-1.7-0.7S44.8,8.5,44.3,9s-0.7,1.1-0.7,1.8s0.2,1.3,0.7,1.8
	s1.1,0.7,1.7,0.7c0.7,0,1.3-0.2,1.8-0.7c0.4-0.4,0.5-0.7,0.5-1.3h-2.4v-0.8H49C49.2,10.9,49.2,11.1,49.2,11.2z M54.2,8.6h-3v2.1H54
	v0.6h-2.8v2h3V14h-3.8V7.7h3.8V8.6z M57.7,14.1h-0.8V8.6h-1.8V7.8h4.4v0.7h-1.8L57.7,14.1l0.1,0.1v-0.1H57.7z M62.6,14.1V7.7h0.8
	v6.4H62.6z M67.2,14.1h-0.8V8.6h-1.7V7.8h4.4v0.7h-1.8L67.2,14.1L67.2,14.1z M77.5,13.4c-0.6,0.6-1.4,1-2.4,1s-1.7-0.4-2.4-1
	c-0.6-0.6-1-1.4-1-2.4c0-0.8,0.4-1.7,1-2.4c0.6-0.6,1.4-1,2.3-1c1,0,1.7,0.4,2.4,1c0.6,0.6,1,1.4,1,2.4
	C78.4,11.9,78.1,12.6,77.5,13.4z M73.3,12.8c0.5,0.5,1.1,0.7,1.7,0.7s1.2-0.2,1.7-0.7s0.7-1.1,0.7-1.8s-0.2-1.3-0.7-1.8
	S75.6,8.5,75,8.5s-1.2,0.2-1.7,0.7s-0.7,1.1-0.7,1.8C72.6,11.7,72.8,12.3,73.3,12.8z M79.6,14.1V7.7h1l3.1,5.1V7.7h0.8v6.4h-0.8
	l-3.4-5.3v5.3H79.6z"/>
<path style="display:none;fill:#FFFFFF;stroke:#000000;stroke-width:0.25;stroke-miterlimit:10;" d="M69.8,23.4
	c-2.4,0-4.3,1.8-4.3,4.3c0,2.4,1.9,4.3,4.3,4.3s4.3-1.8,4.3-4.3C74.1,25.1,72.1,23.4,69.8,23.4z M69.8,30.1c-1.2,0-2.4-1-2.4-2.6
	s1.1-2.6,2.4-2.6s2.4,1,2.4,2.6C72.3,29.1,71.1,30.1,69.8,30.1z M60.6,23.4c-2.4,0-4.3,1.8-4.3,4.3c0,2.4,1.9,4.3,4.3,4.3
	c2.4,0,4.3-1.8,4.3-4.3C64.8,25.1,62.9,23.4,60.6,23.4z M60.6,30.1c-1.2,0-2.4-1-2.4-2.6s1.1-2.6,2.4-2.6c1.2,0,2.4,1,2.4,2.6
	S61.8,30.1,60.6,30.1z M49.5,24.6v1.8h4.4c-0.1,1-0.5,1.7-1,2.3c-0.6,0.6-1.6,1.3-3.3,1.3c-2.7,0-4.7-2.2-4.7-4.8s2.1-4.8,4.7-4.8
	c1.5,0,2.6,0.6,3.2,1.2l1.2-1.2c-1-0.9-2.6-1.7-4.7-1.7c-3.7,0-6.7,2.9-6.7,6.7s3.1,6.7,6.7,6.7c1.9,0,3.4-0.7,4.6-1.8
	s1.6-2.9,1.6-4.3c0-0.5,0-0.8-0.1-1.1L49.5,24.6z M94.7,26c-0.4-1-1.3-2.7-3.5-2.7s-4,1.7-4,4.3c0,2.4,1.8,4.3,4.3,4.3
	c1.9,0,3.1-1.1,3.5-1.8l-1.5-1c-0.5,0.7-1.1,1.1-2.1,1.1s-1.6-0.5-2.1-1.2l5.7-2.4L94.7,26z M89,27.5c0-1.6,1.2-2.6,2.2-2.6
	c0.7,0,1.3,0.4,1.6,1L89,27.5z M84.3,31.6h1.8V19.1h-1.8V31.6z M81.3,24.3c-0.5-0.5-1.2-1-2.3-1c-2.2,0-4.1,1.8-4.1,4.3
	c0,2.4,1.9,4.3,4.1,4.3c1,0,1.8-0.5,2.3-1h0.1v0.6c0,1.6-1,2.6-2.3,2.6c-1.1,0-1.8-0.8-2.2-1.5l-1.6,0.7c0.5,1.1,1.7,2.6,3.8,2.6
	c2.2,0,4-1.2,4-4.5v-7.7h-1.7L81.3,24.3z M79.1,30.1c-1.2,0-2.4-1-2.4-2.6s1-2.7,2.4-2.7c1.2,0,2.3,1.1,2.3,2.7S80.4,30.1,79.1,30.1
	z M103.6,19.1h-4.5v12.5h1.8v-4.8h2.7c2.1,0,4.1-1.5,4.1-3.9C107.6,20.5,105.6,19.1,103.6,19.1z M103.6,25.1h-2.7v-4.3h2.7
	c1.3,0,2.2,1.1,2.2,2.2C105.6,23.9,104.9,25.1,103.6,25.1z M115.1,23.4c-1.3,0-2.8,0.6-3.3,2l1.6,0.7c0.4-0.7,1-1,1.7-1
	c1,0,1.9,0.6,1.9,1.6v0.1c-0.4-0.2-1-0.5-1.9-0.5c-1.8,0-3.5,1-3.5,2.9c0,1.7,1.5,2.8,3.1,2.8c1.2,0,1.9-0.6,2.4-1.2h0.1v1h1.8V27
	C118.9,24.5,117.1,23.4,115.1,23.4z M114.9,30.1c-0.6,0-1.5-0.4-1.5-1c0-1,1-1.3,1.9-1.3c0.8,0,1.2,0.2,1.7,0.5
	C117,29.4,115.9,30.1,114.9,30.1z M125.4,23.6l-2.2,5.4h-0.1l-2.2-5.4h-2.1l3.3,7.6l-1.9,4.3h1.9l5.1-11.8L125.4,23.6L125.4,23.6z
	 M108.7,31.6h1.8V19.1h-1.8V31.6z"/>
<text transform="matrix(1 0 0 1 42.7078 14.4233)" style="font-family:'ProductSans-Regular'; font-size:9.3px;">GET IT ON</text>
<text transform="matrix(1 0 0 1 42.7078 31.2598)" style="enable-background:new    ;"><tspan x="0" y="0" style="font-family:'ProductSans-Regular'; font-size:17px;">Googl   </tspan><tspan x="57.1" y="0" style="font-family:'ProductSans-Regular'; font-size:14px;"> </tspan><tspan x="60.2" y="0" style="font-family:'ProductSans-Regular'; font-size:17px;">Play</tspan></text>
<text transform="matrix(0.8933 -0.4494 0.4494 0.8933 91.6212 32.5412)" style="font-family:'ProductSans-Regular'; font-size:17px;">e </text>
<path style="opacity:0.7;" d="M27.9,17.9l4.7,2.7c0.7,0.4,0.7,1.5,0,1.9l-18,9.9c-0.7,0.4-1.6-0.1-1.6-0.9V11.1
	c0-0.3,0.1-0.5,0.2-0.7l10.8,10.8L27.9,17.9"/>
<path style="opacity:0.16;" d="M23.9,21.2L13.2,32.2c-0.2-0.2-0.3-0.5-0.3-0.8V11.1c0-0.1,0-0.4,0.2-0.7L23.9,21.2z"/>
<path style="opacity:0.16;" d="M32.5,22.5L27.9,25l-4-3.8l4-3.4c2.7,1.5,4.7,2.7,4.7,2.7C33.3,21,33.3,22.1,32.5,22.5z"/>
<path style="fill:#DDDDDD;" d="M27.9,17.9L27.9,17.9l-4,3.4L13.1,10.4c0,0,0.1-0.2,0.3-0.3c0.3-0.2,0.7-0.2,1.1,0l11.2,6.5
	c0.1,0.1,0.2,0.1,0.3,0.2c0.3,0.2,0.6,0.3,0.9,0.5L27.9,17.9z"/>
<path style="opacity:0.6;" d="M27.9,25l-0.3,0.2l-13.1,7.2c-0.5,0.2-1,0.1-1.3-0.2c0,0,0,0,0,0l10.7-10.9L27.9,25z"/>
<path d="M13.2,32.2L13.2,32.2C13.2,32.2,13.2,32.2,13.2,32.2L13.2,32.2z"/>
<polygon points="27.9,25 27.6,25.2 27.9,25 "/>
</svg>
