<?xml version="1.0" encoding="utf-8"?>
<!-- Generator: Adobe Illustrator 26.4.1, SVG Export Plug-In . SVG Version: 6.00 Build 0)  -->
<svg version="1.1" id="Layer_1" xmlns="http://www.w3.org/2000/svg" xmlns:xlink="http://www.w3.org/1999/xlink" x="0px" y="0px"
	 viewBox="0 0 143.6 42.5" style="enable-background:new 0 0 143.6 42.5;" xml:space="preserve">
<path style="fill:#FFFFFF;stroke:#FFFFFF;stroke-width:0.2413;stroke-miterlimit:10;" d="M49.2,11.2c0,0.8-0.2,1.6-0.8,2.1
	c-0.6,0.6-1.3,1-2.4,1s-1.7-0.4-2.4-1c-0.6-0.6-1-1.4-1-2.4c0-1,0.4-1.7,1-2.4c0.6-0.6,1.4-1,2.4-1c0.5,0,0.8,0.1,1.3,0.2
	c0.4,0.1,0.7,0.4,1,0.7l-0.6,0.6c-0.4-0.5-1-0.7-1.7-0.7s-1.2,0.2-1.7,0.7c-0.5,0.5-0.7,1.1-0.7,1.8c0,0.7,0.2,1.3,0.7,1.8
	c0.5,0.5,1.1,0.7,1.7,0.7c0.7,0,1.3-0.2,1.8-0.7c0.4-0.4,0.5-0.7,0.5-1.3h-2.4v-0.8h3.1C49.2,10.9,49.2,11.1,49.2,11.2z M54.2,8.6
	h-3v2.1h2.8v0.6h-2.8v2h3v0.7h-3.8V7.7h3.8V8.6z M57.7,14.1h-0.8V8.6h-1.8V7.8h4.4v0.7h-1.8v5.7h0.1V14.1z M62.6,14.1V7.7h0.8v6.4
	H62.6z M67.2,14.1h-0.8V8.6h-1.7V7.8h4.4v0.7h-1.8V14.1z M77.5,13.4c-0.6,0.6-1.4,1-2.4,1c-1,0-1.7-0.4-2.4-1c-0.6-0.6-1-1.4-1-2.4
	c0-0.8,0.4-1.7,1-2.4C73.3,8,74.1,7.6,75,7.6c1,0,1.7,0.4,2.4,1c0.6,0.6,1,1.4,1,2.4C78.4,11.9,78.1,12.6,77.5,13.4z M73.3,12.8
	c0.5,0.5,1.1,0.7,1.7,0.7s1.2-0.2,1.7-0.7c0.5-0.5,0.7-1.1,0.7-1.8c0-0.7-0.2-1.3-0.7-1.8c-0.5-0.5-1.1-0.7-1.7-0.7
	s-1.2,0.2-1.7,0.7s-0.7,1.1-0.7,1.8C72.6,11.7,72.8,12.3,73.3,12.8z M79.6,14.1V7.7h1l3.1,5.1V7.7h0.8v6.4h-0.8l-3.4-5.3v5.3H79.6z"
	/>
<path style="fill:#FFFFFF;" d="M69.8,23.4c-2.4,0-4.3,1.8-4.3,4.3c0,2.4,1.9,4.3,4.3,4.3c2.4,0,4.3-1.8,4.3-4.3
	C74.1,25.1,72.1,23.4,69.8,23.4z M69.8,30.1c-1.2,0-2.4-1-2.4-2.6s1.1-2.6,2.4-2.6s2.4,1,2.4,2.6C72.3,29.1,71.1,30.1,69.8,30.1z
	 M60.6,23.4c-2.4,0-4.3,1.8-4.3,4.3c0,2.4,1.9,4.3,4.3,4.3c2.4,0,4.3-1.8,4.3-4.3C64.8,25.1,62.9,23.4,60.6,23.4z M60.6,30.1
	c-1.2,0-2.4-1-2.4-2.6s1.1-2.6,2.4-2.6c1.2,0,2.4,1,2.4,2.6S61.8,30.1,60.6,30.1z M49.5,24.6v1.8h4.4c-0.1,1-0.5,1.7-1,2.3
	c-0.6,0.6-1.6,1.3-3.3,1.3c-2.7,0-4.7-2.2-4.7-4.8s2.1-4.8,4.7-4.8c1.5,0,2.6,0.6,3.2,1.2l1.2-1.2c-1-0.9-2.6-1.7-4.7-1.7
	c-3.7,0-6.7,2.9-6.7,6.7s3.1,6.7,6.7,6.7c1.9,0,3.4-0.7,4.6-1.8s1.6-2.9,1.6-4.3c0-0.5,0-0.8-0.1-1.1L49.5,24.6z M94.7,26
	c-0.4-1-1.3-2.7-3.5-2.7s-4,1.7-4,4.3c0,2.4,1.8,4.3,4.3,4.3c1.9,0,3.1-1.1,3.5-1.8l-1.5-1c-0.5,0.7-1.1,1.1-2.1,1.1
	c-1,0-1.6-0.5-2.1-1.2l5.7-2.4L94.7,26z M89,27.5c0-1.6,1.2-2.6,2.2-2.6c0.7,0,1.3,0.4,1.6,1L89,27.5z M84.3,31.6h1.8V19.1h-1.8
	V31.6z M81.3,24.3c-0.5-0.5-1.2-1-2.3-1c-2.2,0-4.1,1.8-4.1,4.3c0,2.4,1.9,4.3,4.1,4.3c1,0,1.8-0.5,2.3-1h0.1v0.6
	c0,1.6-1,2.6-2.3,2.6c-1.1,0-1.8-0.8-2.2-1.5l-1.6,0.7c0.5,1.1,1.7,2.6,3.8,2.6c2.2,0,4-1.2,4-4.5v-7.7h-1.7L81.3,24.3z M79.1,30.1
	c-1.2,0-2.4-1-2.4-2.6s1-2.7,2.4-2.7c1.2,0,2.3,1.1,2.3,2.7S80.4,30.1,79.1,30.1z M103.6,19.1h-4.5v12.5h1.8v-4.8h2.7
	c2.1,0,4.1-1.5,4.1-3.9C107.6,20.5,105.6,19.1,103.6,19.1z M103.6,25.1h-2.7v-4.3h2.7c1.3,0,2.2,1.1,2.2,2.2
	C105.6,23.9,104.9,25.1,103.6,25.1z M115.1,23.4c-1.3,0-2.8,0.6-3.3,2l1.6,0.7c0.4-0.7,1-1,1.7-1c1,0,1.9,0.6,1.9,1.6v0.1
	c-0.4-0.2-1-0.5-1.9-0.5c-1.8,0-3.5,1-3.5,2.9c0,1.7,1.5,2.8,3.1,2.8c1.2,0,1.9-0.6,2.4-1.2h0.1v1h1.8v-4.8
	C118.9,24.5,117.1,23.4,115.1,23.4z M114.9,30.1c-0.6,0-1.5-0.4-1.5-1c0-1,1-1.3,1.9-1.3c0.8,0,1.2,0.2,1.7,0.5
	C117,29.4,115.9,30.1,114.9,30.1z M125.4,23.6l-2.2,5.4h-0.1l-2.2-5.4h-2.1l3.3,7.6l-1.9,4.3h1.9l5.1-11.8L125.4,23.6L125.4,23.6z
	 M108.7,31.6h1.8V19.1h-1.8V31.6z"/>
<g>
	
		<linearGradient id="SVGID_1_" gradientUnits="userSpaceOnUse" x1="23.2682" y1="-112.373" x2="8.3745" y2="-97.4793" gradientTransform="matrix(1 0 0 1 0 123.545)">
		<stop  offset="0" style="stop-color:#00A0FF"/>
		<stop  offset="7.000001e-03" style="stop-color:#00A1FF"/>
		<stop  offset="0.26" style="stop-color:#00BEFF"/>
		<stop  offset="0.512" style="stop-color:#00D2FF"/>
		<stop  offset="0.76" style="stop-color:#00DFFF"/>
		<stop  offset="1" style="stop-color:#00E3FF"/>
	</linearGradient>
	<path style="fill:url(#SVGID_1_);" d="M13.2,10.2c-0.2,0.2-0.4,0.7-0.4,1.2V31c0,0.5,0.2,1,0.4,1.2l0.1,0.1l11-11v-0.2L13.2,10.2z"
		/>
	
		<linearGradient id="SVGID_00000000197909968341409010000013990119713504458380_" gradientUnits="userSpaceOnUse" x1="33.98" y1="-102.2625" x2="12.5072" y2="-102.2625" gradientTransform="matrix(1 0 0 1 0 123.545)">
		<stop  offset="0" style="stop-color:#FFE000"/>
		<stop  offset="0.409" style="stop-color:#FFBD00"/>
		<stop  offset="0.775" style="stop-color:#FFA500"/>
		<stop  offset="1" style="stop-color:#FF9C00"/>
	</linearGradient>
	<path style="fill:url(#SVGID_00000000197909968341409010000013990119713504458380_);" d="M27.9,25l-3.6-3.6v-0.2l3.6-3.6H28
		l4.4,2.4c1.2,0.7,1.2,1.9,0,2.5L27.9,25z"/>
	
		<linearGradient id="SVGID_00000083052207896885724470000005437573747223255969_" gradientUnits="userSpaceOnUse" x1="25.9288" y1="-100.3412" x2="5.7322" y2="-80.1447" gradientTransform="matrix(1 0 0 1 0 123.545)">
		<stop  offset="0" style="stop-color:#FF3A44"/>
		<stop  offset="1" style="stop-color:#C31162"/>
	</linearGradient>
	<path style="fill:url(#SVGID_00000083052207896885724470000005437573747223255969_);" d="M28,24.9l-3.8-3.8L13.2,32.2
		c0.4,0.4,1.1,0.5,1.9,0.1L28,24.9z"/>
	
		<linearGradient id="SVGID_00000170280795622452731110000014633201747305423254_" gradientUnits="userSpaceOnUse" x1="10.4189" y1="-119.8621" x2="19.4732" y2="-110.8067" gradientTransform="matrix(1 0 0 1 0 123.545)">
		<stop  offset="0" style="stop-color:#32A071"/>
		<stop  offset="6.900000e-02" style="stop-color:#2DA771"/>
		<stop  offset="0.476" style="stop-color:#15CF74"/>
		<stop  offset="0.801" style="stop-color:#06E775"/>
		<stop  offset="1" style="stop-color:#00F076"/>
	</linearGradient>
	<path style="fill:url(#SVGID_00000170280795622452731110000014633201747305423254_);" d="M28.1,17.5L15,10.2
		c-0.7-0.4-1.4-0.4-1.9,0.1l11.2,11L28.1,17.5z"/>
</g>
</svg>
