<?xml version="1.0" encoding="utf-8"?>
<!-- Generator: Adobe Illustrator 26.4.1, SVG Export Plug-In . SVG Version: 6.00 Build 0)  -->
<svg version="1.1" id="Layer_2_00000032614995236770130930000001516229685575405458_"
	 xmlns="http://www.w3.org/2000/svg" xmlns:xlink="http://www.w3.org/1999/xlink" x="0px" y="0px" viewBox="0 0 229.6 229.6"
	 style="enable-background:new 0 0 229.6 229.6;" xml:space="preserve">
<style type="text/css">
	.st0{fill:url(#SVGID_1_);stroke:#781D0F;stroke-width:3;stroke-miterlimit:10;}
	.st1{fill:#FFFFFF;stroke:#781D0F;stroke-width:3;stroke-miterlimit:10;}
	.st2{fill:#FFFFFF;}
	.st3{fill:url(#SVGID_00000059999516063704450400000006889611130143485839_);}
	.st4{fill:#781D0F;}
	.st5{fill:url(#SVGID_00000174582327118584464870000009651710916395442871_);}
	.st6{fill:url(#SVGID_00000076565054790823692010000010476584739184034990_);}
</style>
<radialGradient id="SVGID_1_" cx="114.81" cy="114.81" r="146.2466" fx="250.0746" fy="170.4118" gradientUnits="userSpaceOnUse">
	<stop  offset="0" style="stop-color:#EA0621"/>
	<stop  offset="0.37" style="stop-color:#E70622"/>
	<stop  offset="0.57" style="stop-color:#DF0725"/>
	<stop  offset="0.73" style="stop-color:#D2092C"/>
	<stop  offset="0.86" style="stop-color:#BF0C35"/>
	<stop  offset="0.98" style="stop-color:#A61041"/>
	<stop  offset="1" style="stop-color:#A21144"/>
</radialGradient>
<path class="st0" d="M179.1,226.1H50.6c-26,0-47-21-47-47V50.6c0-26,21-47,47-47h128.5c26,0,47,21,47,47v128.5
	C226.1,205,205,226.1,179.1,226.1z"/>
<g id="Layer_2-2">
	<path class="st1" d="M113.8,76.1c-0.7,0-1.4-0.2-2-0.7c-1.4-1.1-1.6-3.1-0.5-4.4l9.1-11.5c0.4-0.5,0.3-1.1,0.1-1.3
		c-0.1-0.3-0.5-0.7-1.1-0.7L103,58.5c-2.9,0.2-5.6-1.3-7-3.9c-1.4-2.6-1.2-5.6,0.5-8l2.5-3.5c0.4-0.5,0.2-1,0.1-1.3
		c-0.1-0.3-0.4-0.7-1.1-0.6l-39.8,1c-1.7,0.1-3.2-1.3-3.2-3.1c0-1.7,1.3-3.2,3.1-3.2l39.8-1c2.9-0.1,5.5,1.5,6.8,4
		c1.3,2.5,1.1,5.6-0.5,7.9l-2.5,3.5c-0.4,0.5-0.2,1-0.1,1.3c0.1,0.3,0.5,0.7,1.1,0.6l16.4-0.9c3-0.2,5.7,1.4,7.1,4
		c1.4,2.7,1.1,5.8-0.8,8.1l-9.1,11.5C115.7,75.7,114.7,76.1,113.8,76.1z"/>
	<g>
		<ellipse class="st1" cx="64.6" cy="112.3" rx="18.2" ry="21.3"/>
		<ellipse class="st1" cx="172.1" cy="112.3" rx="18.2" ry="21.3"/>
	</g>
	<path class="st1" d="M176.4,134.4c1.1,8.5,5.8,18.8,0.9,28.2c-2.3,4.5-4.3,4.5-10.8,10.5c-16.4,15.3-15,24.2-27.5,29.5
		c-4,1.7-7.7,1.9-15.3,2.5c-9.3,0.7-16.1,1.1-22.8-1.4c-11.8-4.5-9.9-11.6-28.9-29.1c-6.2-5.7-8.2-6.4-10.6-10.7
		c-5.3-9.7-1.5-20.3-0.8-29.5c2.2-28.4,4-51.4,20-63.2c10.1-7.4,21.7-7.4,37.8-7.3c15.9,0.1,26.4,0.1,36,6.8
		C169.6,81.4,172.2,101.6,176.4,134.4L176.4,134.4z"/>
	<path class="st2" d="M119.5,198c-0.3,0.4-0.6,0.7-1,1c-0.3-0.3-0.6-0.7-1-1l1-0.5L119.5,198z"/>
	<path class="st1" d="M56.6,25.5l-7.1,2.4c-2.3,0.8-4,2.7-4.4,5l-1.5,7.3c-0.5,2.3,0.3,4.8,2.1,6.4l5.6,4.9c1.8,1.6,4.3,2.1,6.6,1.3
		l7.1-2.4c2.3-0.8,4-2.7,4.4-5l1.5-7.3c0.5-2.3-0.3-4.8-2.1-6.4l-5.6-4.9C61.4,25.2,58.9,24.7,56.6,25.5L56.6,25.5z"/>
	<g>
		
			<radialGradient id="SVGID_00000132770748197788141290000011329445350680582538_" cx="90.9463" cy="109.9584" r="8.4938" gradientTransform="matrix(1 0 0 -1 0 231.2756)" gradientUnits="userSpaceOnUse">
			<stop  offset="0" style="stop-color:#EA0621"/>
			<stop  offset="0.37" style="stop-color:#E70622"/>
			<stop  offset="0.57" style="stop-color:#DF0725"/>
			<stop  offset="0.73" style="stop-color:#D2092C"/>
			<stop  offset="0.86" style="stop-color:#BF0C35"/>
			<stop  offset="0.98" style="stop-color:#A61041"/>
			<stop  offset="1" style="stop-color:#A21144"/>
		</radialGradient>
		<circle style="fill:url(#SVGID_00000132770748197788141290000011329445350680582538_);" cx="90.9" cy="121.3" r="8.5"/>
		<path class="st4" d="M90.9,114.4c3.8,0,6.9,3.1,6.9,6.9s-3.1,6.9-6.9,6.9s-6.9-3.1-6.9-6.9S87.1,114.4,90.9,114.4 M90.9,111.2
			c-5.6,0-10.1,4.5-10.1,10.1c0,5.6,4.5,10.1,10.1,10.1c5.6,0,10.1-4.5,10.1-10.1C101,115.7,96.5,111.2,90.9,111.2L90.9,111.2z"/>
	</g>
	<g>
		
			<radialGradient id="SVGID_00000101066905487918786880000018300054056930863803_" cx="145.94" cy="109.9584" r="8.4938" gradientTransform="matrix(1 0 0 -1 0 231.2756)" gradientUnits="userSpaceOnUse">
			<stop  offset="0" style="stop-color:#EA0621"/>
			<stop  offset="0.37" style="stop-color:#E70622"/>
			<stop  offset="0.57" style="stop-color:#DF0725"/>
			<stop  offset="0.73" style="stop-color:#D2092C"/>
			<stop  offset="0.86" style="stop-color:#BF0C35"/>
			<stop  offset="0.98" style="stop-color:#A61041"/>
			<stop  offset="1" style="stop-color:#A21144"/>
		</radialGradient>
		<path style="fill:url(#SVGID_00000101066905487918786880000018300054056930863803_);" d="M145.9,129.8c-4.7,0-8.5-3.8-8.5-8.5
			s3.8-8.5,8.5-8.5c4.7,0,8.5,3.8,8.5,8.5S150.6,129.8,145.9,129.8L145.9,129.8z"/>
		<path class="st4" d="M145.9,114.4c3.8,0,6.9,3.1,6.9,6.9s-3.1,6.9-6.9,6.9c-3.8,0-6.9-3.1-6.9-6.9S142.1,114.4,145.9,114.4
			 M145.9,111.2c-5.6,0-10.1,4.5-10.1,10.1c0,5.6,4.5,10.1,10.1,10.1c5.6,0,10.1-4.5,10.1-10.1C156,115.7,151.5,111.2,145.9,111.2
			L145.9,111.2L145.9,111.2z"/>
	</g>
	<g>
		
			<radialGradient id="SVGID_00000051360048159852995130000016340195157797184135_" cx="120.012" cy="75.4781" r="18.9618" gradientTransform="matrix(1 0 0 -1 0 231.2756)" gradientUnits="userSpaceOnUse">
			<stop  offset="0" style="stop-color:#EA0621"/>
			<stop  offset="0.37" style="stop-color:#E70622"/>
			<stop  offset="0.57" style="stop-color:#DF0725"/>
			<stop  offset="0.73" style="stop-color:#D2092C"/>
			<stop  offset="0.86" style="stop-color:#BF0C35"/>
			<stop  offset="0.98" style="stop-color:#A61041"/>
			<stop  offset="1" style="stop-color:#A21144"/>
		</radialGradient>
		<path style="fill:url(#SVGID_00000051360048159852995130000016340195157797184135_);" d="M120,162.2c-0.7,0-1.4,0-2.1-0.1
			c-12.5-0.7-20.7-7.9-23.6-10.9c-0.4-0.4-0.4-1.1,0-1.5c0.2-0.2,0.5-0.3,0.7-0.3s0.6,0.1,0.8,0.3c2.8,2.9,10.5,9.6,22.2,10.3
			c0.6,0,1.3,0.1,1.9,0.1c13.5,0,22.7-8.6,24.3-10.3c0.2-0.2,0.5-0.3,0.8-0.3c0.3,0,0.5,0.1,0.7,0.3c0.2,0.2,0.3,0.5,0.3,0.7
			c0,0.3-0.1,0.5-0.3,0.7C143.2,153.8,133.9,162.2,120,162.2L120,162.2z"/>
		<path class="st4" d="M145,147.8c-0.7,0-1.4,0.3-1.9,0.8c-1.7,1.7-10.3,9.9-23.2,9.9c-0.6,0-1.2,0-1.8-0.1
			c-11.2-0.7-18.6-7.1-21.2-9.8c-0.5-0.5-1.2-0.8-1.9-0.8s-1.3,0.2-1.8,0.7c-1,1-1.1,2.7-0.1,3.7c3.1,3.2,11.6,10.6,24.7,11.4
			c0.7,0,1.5,0.1,2.2,0.1c14.5,0,24.2-8.7,26.9-11.5c1-1,1-2.7,0-3.7C146.3,148.1,145.7,147.8,145,147.8L145,147.8L145,147.8z"/>
	</g>
</g>
</svg>
