<?xml version="1.0" encoding="utf-8"?>
<!-- Generator: Adobe Illustrator 26.4.1, SVG Export Plug-In . SVG Version: 6.00 Build 0)  -->
<svg version="1.1" id="Layer_1" xmlns="http://www.w3.org/2000/svg" xmlns:xlink="http://www.w3.org/1999/xlink" x="0px" y="0px"
	 viewBox="0 0 480.2 484.4" enable-background="new 0 0 480.2 484.4" xml:space="preserve">
<path opacity="0.5" fill="#FFFFFF" stroke="#000000" stroke-miterlimit="10" enable-background="new    " d="M354.8,424.5H78.3
	c-40.3,0-72.9-32.6-72.9-72.9v-268c0-40.3,32.7-72.9,72.9-72.9h276.5c40.3,0,72.9,32.7,72.9,72.9v268
	C427.7,391.8,395,424.5,354.8,424.5z"/>
<g>
	<path fill="#FFFFFF" stroke="#000000" stroke-width="10" stroke-miterlimit="10" d="M182.9,199.8v-13c0,0-10.7,0-21.5-4.3
		c-12.6-5-12.1-13.7-12.1-14.2l0,0c-0.1-0.5-1.2-9.3,8.6-13.7c8.5-3.8,18.9-3.1,18.9-3.1s-3.2-1.2-8.1-4.9c-2.2-1.6-5.5-5.2-5.8-5.5
		c-0.1,0-0.1,0-0.1,0s-16.3-15.5-9.3-40.1c6.9-24.6,41.1-40.4,73.6-36.9c30.4,3.3,43.8,24.4,45.3,27c0.1,0.2,0.2,0.3,0.2,0.3
		c3.6,5.6,10.3,20.3,0,40.5c-7.1,13.9-20.3,20.1-20.3,20.1s11.8-0.9,20.2,2.4c6.9,2.8,9.1,8.8,9.4,9.5l0,0c0,0,0.5,0.8,0.4,4.6
		c-0.1,4.5-2.6,9.7-9.7,13c-9.3,4.2-19.1,5-19.1,5l-0.3,11.2c0,0,0,0,0,0.1c0,0.6,0.5,6.9,10.1,25c9.2,17.3,16.1,26.5,17.4,28
		c2.2-0.3,4.3-0.3,6.5,0.2c3.4,0.9,4.8,2.9,4.8,2.9c2.7,2.3,4.2,7.5,4.2,7.5c1,2.9,0.5,4.6,0.5,4.6l0,0l0,0c0,0,13,9.2,18.3,13.5
		c5.2,4.2,11.6,11.9,12,12.4l0,0c0,0,5.2,5.8,5.7,13.8c0.4,6.4-2.7,12.3-2.7,12.3l0.1,0.1l0,0l12.9,10.8l0,0c0,0,0.3,0.4,0.4,0.6
		c1.5,2.2,2.1,4.7,1.9,7.2c-0.3,3.4-1.6,11.1-18.1,20.1c-16.5,8.9-56.4,17-109.1,17s-81-6.8-102-14.3c-20.3-7.3-25.5-13.9-26-20.1
		c-0.4-5,2.9-9.2,2.9-9.2l0,0l0,0c0,0,1.8-2.6,6.7-6.3c3.6-2.8,8.3-5.2,8.8-5.5c-0.6-0.1-4-4.1-4.1-10.5c-0.2-6.9,3.3-12.3,3.3-12.3
		s4.5-9.1,13.8-16.6c5.5-4.5,15-10.6,15.6-11c-0.3-0.1-2-1.2-2.1-4.7c0-2.2,1.4-4.4,1.4-4.4s3.3-4.2,7.8-5.3c0,0,3.6-0.9,6-0.9
		c1.1,0,1.7,0,1.7,0s20.8-25.1,24.5-32.1S182.9,199.8,182.9,199.8z"/>
	<path fill="#FFFFFF" stroke="#000000" stroke-width="10" stroke-miterlimit="10" d="M294.7,258.3"/>
	<path fill="#FFFFFF" stroke="#000000" stroke-width="10" stroke-miterlimit="10" d="M141.9,254.4"/>
	<path fill="#FFFFFF" stroke="#000000" stroke-width="10" stroke-miterlimit="10" d="M140.6,255.1"/>
	<g>
		<path fill="#474C50" d="M270.1,88.5l-107.8,52.3c0,0,3.5,3.8,5.8,5.6c4.9,3.6,8.1,4.9,8.1,4.9l-2,5.4l-25.5,11.4
			c0,0-0.9,9,12.1,14.2c10.8,4.3,21.5,4.3,21.5,4.3v13c0,0,16.3,16.1,38,16.1s32.1-18.3,32.1-18.3l0.3-11.2c0,0,9.8-0.8,19.1-5
			c7.1-3.2,9.6-8.5,9.7-13c0.1-3.8-0.4-4.6-0.4-4.6l-29.6-11.9c0,0,13.2-6.2,20.3-20.1C285.3,105.4,270.1,88.5,270.1,88.5
			L270.1,88.5z"/>
		<path fill="#474C50" d="M209.9,244.9l-73.7,13.5c0,0-1.9,2.1-1.9,4.3c0.1,3.8,2.2,4.7,2.2,4.7L107.1,295c0,0-3.4,5.4-3.3,12.3
			c0.2,6.6,3.7,10.6,4.2,10.5l-9.6,9.8l-6.1,2c0,0-3.3,4.1-2.9,9.2c0.5,6.2,5.7,12.8,26.1,20.1c21,7.5,49.3,14.3,102,14.3
			s92.6-8,109.1-17c16.5-8.9,17.8-16.7,18.1-20.1c0.2-2.5-0.4-5-1.9-7.2c-0.1-0.2-0.5-0.6-0.5-0.6l-13-10.9c0,0,3.1-6,2.7-12.3
			c-0.5-8-5.7-13.8-5.7-13.8l-30.7-20.6l0.3-5.4c0,0,0.5-1.7-0.5-4.6c-0.9-2.5-1.6-3.8-2.3-4.7c-2.2-2.5-4.8-2.3-4.8-2.3
			L209.9,244.9L209.9,244.9z"/>
		<path fill="#5E6367" d="M162.3,140.8c0,0-16.3-15.5-9.3-40.1c6.9-24.6,41.1-40.4,73.6-36.9S272,91,272,91s-0.9,29.5-36,43.9
			S162.3,140.8,162.3,140.8z"/>
		<path fill="#FFFFFE" d="M207.7,71.6c7.7,3.4,3.5,7.2-8.1,13c-10.8,5.4-23.7,21.2-27.2,25.3c-3.5,4-5.8,4.5-7.5,3.6
			s-7.2-3.1-2.3-15.9c4.9-12.7,18-20.8,24.3-23.7C193.2,70.9,201.6,68.9,207.7,71.6L207.7,71.6z"/>
		<path fill="#5E6367" d="M176.4,151.2c0,0,16.4,8.4,34,8.6c24.9,0.2,41.3-8.1,41.3-8.1s11.8-0.9,20.2,2.4c7.4,2.9,9.4,9.5,9.4,9.5
			s-13.3,15.6-70,14.5c-56.7-1.2-62.4-10.1-62.4-10.1s-1.5-9.2,8.6-13.7C166,150.4,176.4,151.2,176.4,151.2L176.4,151.2z"/>
		<path fill="#AEAEAF" d="M165.9,155.8c-5.4-0.4-13.7,2.2-12.7,7.9s17.8,8.3,25.9,8.6s21.1,1.2,20.8-4.7c-0.2-5.9-19.8-2.9-27.5-6.1
			C164.8,158.3,173.7,156.4,165.9,155.8L165.9,155.8z"/>
		<path fill="#5E6367" d="M182.4,199.4c0,0,15.9,3.5,37.5,3.5s32.6-5.7,32.6-5.7s0,6,10.1,25c10.2,19,17.5,28.3,17.5,28.3
			s6.6-0.3,9.2,1.2c2.5,1.6,5,6.4,5,6.4c-0.8,0.9-18.9,13.8-73.3,12.9c-58-1-84.9-12.7-84.9-12.7s3.4-4.4,7.3-5.4
			c4.7-1.2,7.7-0.9,7.7-0.9s17.4-16.2,24.5-32.1C182.9,204.2,182.4,199.4,182.4,199.4L182.4,199.4z"/>
		<path fill="#B0B0AF" d="M218.7,258.8c21.4,0,39.9-3.3,47.8-5.1s13.9-4.7,20-3.2c3.4,0.9,4.8,2.9,4.8,2.9s-22.7,14.7-72.8,13.2
			c-53.4-1.6-79.4-11-79.4-11s3.5-3.8,11.3-3.5c2.1,0.1,4,0.6,16,2.7S197.9,258.8,218.7,258.8L218.7,258.8z"/>
		<path fill="#5E6367" d="M136.5,267.4c0,0,40.7,10.8,82.2,11.2c55.5,0.6,77.3-13.1,77.3-13.1s13,9.2,18.3,13.5s12.1,12.4,12.1,12.4
			s-23.2,29.6-108.2,29S107,295,107,295s4.5-9.1,13.8-16.6C126.5,273.8,136.5,267.4,136.5,267.4L136.5,267.4z"/>
		<path fill="#B0B0AF" d="M135.9,279.6c-6.3-1.3-18.8,8.4-17.3,14.5c0.8,3.1,3,6.6,15.2,10c11.2,3.1,28.5,3,28.5-2.2
			c0-6.7-15-6.1-18.8-12C140.4,285.3,142.5,281,135.9,279.6z"/>
		<path fill="#5E6367" d="M108,317.7c0,0-5,2.6-8.9,5.6c-4.9,3.7-6.7,6.3-6.7,6.3s11.2,31.2,119,31.8c105.6,0.7,131-33.1,131-33.1
			s-3.4-3.8-7.1-6.6c-3.6-2.8-6-4.2-6-4.2s-36.2,26.7-118.7,26C132.1,342.9,108,317.7,108,317.7L108,317.7z"/>
		<path fill="#B0B0AF" d="M102.6,326.3c-2.9,2.5-2.8,7.7,5.7,12c9.1,4.6,23.8,11.2,44.8,14.2c21.4,3.1,43.7,2.1,42.3-3.4
			c-0.9-3.8-19.5,0.5-52.4-9.6c-19.3-5.9-25.3-9.1-29.2-11.3C111.3,326.8,106.8,322.7,102.6,326.3z"/>
		<path fill="#B0B0AF" d="M127.5,297.9c6.7,0,6.7-8,0-8S120.8,297.9,127.5,297.9z"/>
	</g>
</g>
<g>
	<path display="none" fill="#FFFFFF" stroke="#000000" stroke-width="5" stroke-miterlimit="10" d="M372.8,423.1H63.7
		c-27.5,0-49.9-22.3-49.9-49.9V64.1c0-27.5,22.3-49.9,49.9-49.9h309.1c27.5,0,49.9,22.3,49.9,49.9v309.1
		C422.7,400.8,400.3,423.1,372.8,423.1z"/>
	
		<linearGradient id="SVGID_1_" gradientUnits="userSpaceOnUse" x1="3.8" y1="-200.65" x2="432.7" y2="-200.65" gradientTransform="matrix(1 0 0 -1 0 18)">
		<stop  offset="0" style="stop-color:#818E70"/>
		<stop  offset="1" style="stop-color:#0B5500"/>
	</linearGradient>
	<path fill="url(#SVGID_1_)" stroke="#000000" stroke-width="5" stroke-miterlimit="10" d="M372.8,433.1H63.7
		c-33,0-59.9-26.9-59.9-59.9V64.1c0-33,26.9-59.9,59.9-59.9h309.1c33,0,59.9,26.9,59.9,59.9v309.1
		C432.7,406.2,405.8,433.1,372.8,433.1z M63.7,24.2c-22,0-39.9,17.9-39.9,39.9v309.1c0,22,17.9,39.9,39.9,39.9h309.1
		c22,0,39.9-17.9,39.9-39.9V64.1c0-22-17.9-39.9-39.9-39.9L63.7,24.2L63.7,24.2z"/>
</g>
<g id="sett">
	<g>
		<g opacity="0.1">
			<g>
				<g>
					<path fill="#2E3192" d="M472.6,379.9l-2.5,7.4c-4.9,15-13.3,29-24.2,40.5l-5.4,5.7c-0.9,1-2.5,1.1-3.5,0.3l-6.2-4.8
						c-4.6-3.5-10.6-5.1-16.5-4.3c-5.8,0.8-10.9,3.7-14.4,8.2s-5,10.1-4.2,15.7l1.1,7.6c0.2,1.3-0.6,2.5-2,2.8l-7.7,1.7
						c-7.7,1.6-15.8,2.5-23.6,2.5c-8.2,0-16.6-0.9-24.6-2.7l-7.7-1.7c-1.3-0.3-2.2-1.5-2-2.8l1.1-7.6c1.3-8.5-2.8-16.8-10.4-21
						c-7.7-4.3-17.2-3.7-24.2,1.7l-6.3,4.7c-1,0.8-2.6,0.7-3.5-0.3l-5.4-5.7c-10.8-11.5-19.1-25.5-23.7-40.4l-2.3-7.3
						c-0.4-1.2,0.2-2.5,1.4-3l7.2-2.9c8.2-3.2,13.6-10.9,13.6-19.5c0.1-8.5-5.2-16.1-13.2-19.3l-7.3-3c-1.2-0.5-1.9-1.8-1.4-3.1
						l2.5-7.3c4.9-14.9,13.3-28.8,24.2-40.2l5.3-5.6c0.9-1,2.4-1.1,3.5-0.3l6.2,4.6c4.5,3.4,10.2,4.8,15.9,4.2
						c5.8-0.7,11-3.5,14.5-8c3.6-4.5,5.2-10,4.5-15.7l-1-7.5c-0.2-1.3,0.7-2.5,2.1-2.8l7.6-1.6c15.7-3.4,32.4-3.4,48,0l7.7,1.7
						c1.3,0.3,2.2,1.5,2,2.8l-1,7.6c-1.2,8.4,2.9,16.6,10.5,20.8c7.7,4.3,17.2,3.7,24.2-1.6l6.2-4.7c1-0.8,2.6-0.7,3.5,0.3l5.4,5.6
						c10.9,11.5,19.2,25.4,24,40.3l2.4,7.3c0.4,1.2-0.2,2.6-1.5,3.1l-7.3,2.9c-8.3,3.2-13.7,10.9-13.8,19.5
						c-0.1,8.5,5.3,16.3,13.4,19.4l0,0l7.4,2.9C472.3,377.3,473,378.6,472.6,379.9z"/>
				</g>
			</g>
		</g>
	</g>
	<g opacity="0.5">
		<g>
			<g>
				<path fill="#EDF0F2" d="M462.1,374.5l-2.5,7.4c-4.9,15-13.3,29-24.2,40.5l-5.4,5.7c-0.9,1-2.5,1.1-3.5,0.3l-6.2-4.8
					c-4.6-3.5-10.6-5.1-16.5-4.3c-5.8,0.8-10.9,3.7-14.4,8.2s-5,10.1-4.2,15.7l1.1,7.6c0.2,1.3-0.6,2.5-2,2.8l-7.7,1.7
					c-7.7,1.6-15.8,2.5-23.6,2.5c-8.2,0-16.6-0.9-24.6-2.7l-7.7-1.7c-1.3-0.3-2.2-1.5-2-2.8l1.1-7.6c1.3-8.5-2.8-16.8-10.4-21
					c-7.7-4.3-17.2-3.7-24.2,1.7l-6.3,4.7c-1,0.8-2.6,0.7-3.5-0.3l-5.4-5.7c-10.8-11.5-19.1-25.5-23.7-40.4l-2.3-7.3
					c-0.4-1.2,0.2-2.5,1.4-3l7.3-2.9c8.2-3.2,13.6-10.9,13.6-19.5c0.1-8.5-5.2-16.1-13.2-19.3l-7.3-3c-1.2-0.5-1.9-1.8-1.4-3.1
					l2.5-7.3c4.9-14.9,13.3-28.8,24.2-40.2l5.3-5.6c0.9-1,2.4-1.1,3.5-0.3l6.2,4.6c4.5,3.4,10.2,4.8,15.9,4.2c5.8-0.7,11-3.5,14.5-8
					c3.6-4.5,5.2-10,4.5-15.7l-1-7.5c-0.2-1.3,0.7-2.5,2.1-2.8l7.6-1.6c15.7-3.4,32.4-3.4,48,0l7.7,1.7c1.3,0.3,2.2,1.5,2,2.8
					l-1,7.6c-1.2,8.4,2.9,16.6,10.5,20.8c7.7,4.3,17.2,3.7,24.2-1.6l6.2-4.7c1-0.8,2.6-0.7,3.5,0.3l5.4,5.6
					c10.9,11.5,19.2,25.4,24,40.3l2.4,7.3c0.4,1.2-0.2,2.6-1.5,3.1l-7.3,2.9c-8.3,3.2-13.7,10.9-13.8,19.5
					c-0.1,8.5,5.3,16.3,13.4,19.4l0,0l7.4,2.9C461.9,371.9,462.5,373.3,462.1,374.5z"/>
			</g>
		</g>
	</g>
	<g>
		
			<linearGradient id="SVGID_00000114060483990707606060000011117691647301313692_" gradientUnits="userSpaceOnUse" x1="258.4017" y1="136.7736" x2="449.0373" y2="136.7736" gradientTransform="matrix(1 0 0 -1 0 485.2756)">
			<stop  offset="0" style="stop-color:#818E70"/>
			<stop  offset="1" style="stop-color:#434A3A"/>
		</linearGradient>
		
			<polygon display="none" fill="url(#SVGID_00000114060483990707606060000011117691647301313692_)" stroke="#000000" stroke-width="5" stroke-miterlimit="10" points="
			258.4,316.8 280.7,345.5 263.2,375.2 267.7,402.4 280.7,415.4 323.2,417.2 333.1,448 372.9,448 388.1,412.4 420,414.6 433.4,412 
			449,382.4 429.4,355.9 439.1,323.1 449,316.8 430.2,283.8 391.3,287.3 373.4,262.1 370.7,249 334,252.3 320.1,276 300,290.3 
			280.7,286 		"/>
		<g>
			
				<linearGradient id="SVGID_00000007401795830031819420000017351017702560062360_" gradientUnits="userSpaceOnUse" x1="385.429" y1="848.3964" x2="321.5294" y2="784.4969" gradientTransform="matrix(1 0 0 1 0 -467.2756)">
				<stop  offset="0" style="stop-color:#818E70"/>
				<stop  offset="1" style="stop-color:#434A3A"/>
			</linearGradient>
			
				<path fill="url(#SVGID_00000007401795830031819420000017351017702560062360_)" stroke="#000000" stroke-width="5" stroke-miterlimit="10" d="
				M393.3,327c-12.6-21.3-40.7-28.6-62.7-16.4c-21.9,12.2-29.5,39.5-16.9,60.8s40.6,28.6,62.5,16.4
				C398.2,375.5,405.9,348.3,393.3,327z M366.8,371.7c-12.9,7.2-29.3,2.9-36.7-9.6s-3-28.4,9.9-35.6c12.9-7.2,29.3-2.9,36.7,9.6
				c7.4,12.3,3.1,28.2-9.6,35.4C367,371.6,366.9,371.7,366.8,371.7z"/>
			
				<linearGradient id="SVGID_00000067237683624248788400000012320627245431496373_" gradientUnits="userSpaceOnUse" x1="429.5161" y1="892.6895" x2="277.4" y2="740.5733" gradientTransform="matrix(1 0 0 1 0 -467.2756)">
				<stop  offset="0" style="stop-color:#818E70"/>
				<stop  offset="1" style="stop-color:#434A3A"/>
			</linearGradient>
			
				<path fill="url(#SVGID_00000067237683624248788400000012320627245431496373_)" stroke="#000000" stroke-width="5" stroke-miterlimit="10" d="
				M437.5,349c0.1-9.6,6.2-18.3,15.4-21.8l7.3-2.9l-2.4-7.3c-4.7-14.6-12.7-28.1-23.5-39.4l-5.4-5.6l-6.2,4.6
				c-7.8,5.9-18.5,6.6-27.1,1.8c-8.4-4.7-13.2-14-11.7-23.3l1-7.6l-7.7-1.6c-15.5-3.3-31.4-3.3-46.9,0l-7.6,1.6l1,7.5
				c1.6,13-7.9,24.9-21.3,26.5c-6.3,0.8-12.7-0.9-17.7-4.7l-6.2-4.6l-5.3,5.6c-10.7,11.3-18.8,24.7-23.6,39.3l-2.5,7.3l7.3,3
				c9,3.6,14.8,12.2,14.7,21.6c-0.1,9.6-6.1,18.2-15.3,21.8l-7.3,2.9l2.3,7.3c4.6,14.7,12.6,28.1,23.2,39.5l5.4,5.7l6.3-4.7
				c7.8-5.9,18.5-6.7,27.1-1.9c8.6,4.8,13.2,14.1,11.7,23.6l-1.1,7.6l7.7,1.7c7.9,1.7,16,2.6,24.1,2.6c7.7,0,15.5-0.8,23.1-2.4
				l7.7-1.6l-1.1-7.6c-1.9-13,7.4-24.9,20.8-26.7c6.6-0.9,13.3,0.9,18.4,4.9l6.2,4.8l5.4-5.7c10.8-11.4,18.9-24.9,23.7-39.5l2.5-7.4
				l-7.4-2.9C443.4,367.2,437.4,358.5,437.5,349z M426,404c-20.5-10-45.5-2-55.9,17.9c-2.6,4.9-4,10.2-4.3,15.6
				c-8.6,1.1-17.2,1.1-25.8-0.1c-0.7-13.5-8.4-25.6-20.5-32.3c-12.1-6.7-26.7-7.2-39.2-1.2c-5.3-6.5-9.5-13.8-12.7-21.5
				c11.5-7.4,18.5-19.9,18.7-33.4c0.1-13.3-6.7-25.8-18-33.3c3.2-7.8,7.6-15,12.9-21.6c20.7,9.8,45.6,1.4,55.6-18.6
				c2.3-4.6,3.7-9.6,4.1-14.7c8.6-1.2,17.2-1.2,25.8,0c1.5,22.1,21.2,38.8,44,37.3c5.5-0.4,10.8-1.8,15.7-4.1
				c2.7,3.3,5.2,6.8,7.3,10.5c2.1,3.5,3.9,7.2,5.5,11c-11.6,7.4-18.7,19.9-18.8,33.4s6.8,26.1,18.4,33.5
				C435.5,390.1,431.2,397.4,426,404L426,404z"/>
		</g>
	</g>
</g>
</svg>
