<?xml version="1.0" encoding="utf-8"?>
<!-- Generator: Adobe Illustrator 26.4.1, SVG Export Plug-In . SVG Version: 6.00 Build 0)  -->
<svg version="1.1" id="Layer_1" xmlns="http://www.w3.org/2000/svg" xmlns:xlink="http://www.w3.org/1999/xlink" x="0px" y="0px"
	 viewBox="0 0 480.2 484.4" style="enable-background:new 0 0 480.2 484.4;" xml:space="preserve">
<style type="text/css">
	.st0{opacity:0.5;fill:#FFFFFF;stroke:#000000;stroke-miterlimit:10;enable-background:new    ;}
	.st1{fill:#FFFFFF;stroke:#000000;stroke-width:10;stroke-miterlimit:10;}
	.st2{fill:#474C50;}
	.st3{fill:#5E6367;}
	.st4{fill:#FFFFFE;}
	.st5{fill:#AEAEAF;}
	.st6{fill:#B0B0AF;}
	.st7{display:none;fill:#FFFFFF;stroke:#000000;stroke-width:5;stroke-miterlimit:10;}
	.st8{fill:url(#SVGID_1_);stroke:#000000;stroke-width:5;stroke-miterlimit:10;}
</style>
<path class="st0" d="M354.8,424.5H78.3c-40.3,0-72.9-32.6-72.9-72.9v-268c0-40.3,32.7-72.9,72.9-72.9h276.5
	c40.3,0,72.9,32.7,72.9,72.9v268C427.7,391.8,395,424.5,354.8,424.5z"/>
<g>
	<path class="st1" d="M182.9,199.8v-13c0,0-10.7,0-21.5-4.3c-12.6-5-12.1-13.7-12.1-14.2l0,0c-0.1-0.5-1.2-9.3,8.6-13.7
		c8.5-3.8,18.9-3.1,18.9-3.1s-3.2-1.2-8.1-4.9c-2.2-1.6-5.5-5.2-5.8-5.5c-0.1,0-0.1,0-0.1,0s-16.3-15.5-9.3-40.1
		c6.9-24.6,41.1-40.4,73.6-36.9c30.4,3.3,43.8,24.4,45.3,27c0.1,0.2,0.2,0.3,0.2,0.3c3.6,5.6,10.3,20.3,0,40.5
		c-7.1,13.9-20.3,20.1-20.3,20.1s11.8-0.9,20.2,2.4c6.9,2.8,9.1,8.8,9.4,9.5l0,0c0,0,0.5,0.8,0.4,4.6c-0.1,4.5-2.6,9.7-9.7,13
		c-9.3,4.2-19.1,5-19.1,5l-0.3,11.2c0,0,0,0,0,0.1c0,0.6,0.5,6.9,10.1,25c9.2,17.3,16.1,26.5,17.4,28c2.2-0.3,4.3-0.3,6.5,0.2
		c3.4,0.9,4.8,2.9,4.8,2.9c2.7,2.3,4.2,7.5,4.2,7.5c1,2.9,0.5,4.6,0.5,4.6l0,0l0,0c0,0,13,9.2,18.3,13.5c5.2,4.2,11.6,11.9,12,12.4
		l0,0c0,0,5.2,5.8,5.7,13.8c0.4,6.4-2.7,12.3-2.7,12.3l0.1,0.1l0,0l12.9,10.8l0,0c0,0,0.3,0.4,0.4,0.6c1.5,2.2,2.1,4.7,1.9,7.2
		c-0.3,3.4-1.6,11.1-18.1,20.1c-16.5,8.9-56.4,17-109.1,17s-81-6.8-102-14.3c-20.3-7.3-25.5-13.9-26-20.1c-0.4-5,2.9-9.2,2.9-9.2
		l0,0l0,0c0,0,1.8-2.6,6.7-6.3c3.6-2.8,8.3-5.2,8.8-5.5c-0.6-0.1-4-4.1-4.1-10.5c-0.2-6.9,3.3-12.3,3.3-12.3s4.5-9.1,13.8-16.6
		c5.5-4.5,15-10.6,15.6-11c-0.3-0.1-2-1.2-2.1-4.7c0-2.2,1.4-4.4,1.4-4.4s3.3-4.2,7.8-5.3c0,0,3.6-0.9,6-0.9c1.1,0,1.7,0,1.7,0
		s20.8-25.1,24.5-32.1S182.9,199.8,182.9,199.8z"/>
	<path class="st1" d="M294.7,258.3"/>
	<path class="st1" d="M141.9,254.4"/>
	<path class="st1" d="M140.6,255.1"/>
	<g>
		<path class="st2" d="M270.1,88.5l-107.8,52.3c0,0,3.5,3.8,5.8,5.6c4.9,3.6,8.1,4.9,8.1,4.9l-2,5.4l-25.5,11.4c0,0-0.9,9,12.1,14.2
			c10.8,4.3,21.5,4.3,21.5,4.3v13c0,0,16.3,16.1,38,16.1s32.1-18.3,32.1-18.3l0.3-11.2c0,0,9.8-0.8,19.1-5c7.1-3.2,9.6-8.5,9.7-13
			c0.1-3.8-0.4-4.6-0.4-4.6l-29.6-11.9c0,0,13.2-6.2,20.3-20.1C285.3,105.4,270.1,88.5,270.1,88.5L270.1,88.5z"/>
		<path class="st2" d="M209.9,244.9l-73.7,13.5c0,0-1.9,2.1-1.9,4.3c0.1,3.8,2.2,4.7,2.2,4.7L107.1,295c0,0-3.4,5.4-3.3,12.3
			c0.2,6.6,3.7,10.6,4.2,10.5l-9.6,9.8l-6.1,2c0,0-3.3,4.1-2.9,9.2c0.5,6.2,5.7,12.8,26.1,20.1c21,7.5,49.3,14.3,102,14.3
			s92.6-8,109.1-17c16.5-8.9,17.8-16.7,18.1-20.1c0.2-2.5-0.4-5-1.9-7.2c-0.1-0.2-0.5-0.6-0.5-0.6l-13-10.9c0,0,3.1-6,2.7-12.3
			c-0.5-8-5.7-13.8-5.7-13.8l-30.7-20.6l0.3-5.4c0,0,0.5-1.7-0.5-4.6c-0.9-2.5-1.6-3.8-2.3-4.7c-2.2-2.5-4.8-2.3-4.8-2.3
			L209.9,244.9L209.9,244.9z"/>
		<path class="st3" d="M162.3,140.8c0,0-16.3-15.5-9.3-40.1c6.9-24.6,41.1-40.4,73.6-36.9S272,91,272,91s-0.9,29.5-36,43.9
			S162.3,140.8,162.3,140.8z"/>
		<path class="st4" d="M207.7,71.6c7.7,3.4,3.5,7.2-8.1,13c-10.8,5.4-23.7,21.2-27.2,25.3c-3.5,4-5.8,4.5-7.5,3.6s-7.2-3.1-2.3-15.9
			c4.9-12.7,18-20.8,24.3-23.7C193.2,70.9,201.6,68.9,207.7,71.6L207.7,71.6z"/>
		<path class="st3" d="M176.4,151.2c0,0,16.4,8.4,34,8.6c24.9,0.2,41.3-8.1,41.3-8.1s11.8-0.9,20.2,2.4c7.4,2.9,9.4,9.5,9.4,9.5
			s-13.3,15.6-70,14.5c-56.7-1.2-62.4-10.1-62.4-10.1s-1.5-9.2,8.6-13.7C166,150.4,176.4,151.2,176.4,151.2L176.4,151.2z"/>
		<path class="st5" d="M165.9,155.8c-5.4-0.4-13.7,2.2-12.7,7.9s17.8,8.3,25.9,8.6s21.1,1.2,20.8-4.7c-0.2-5.9-19.8-2.9-27.5-6.1
			C164.8,158.3,173.7,156.4,165.9,155.8L165.9,155.8z"/>
		<path class="st3" d="M182.4,199.4c0,0,15.9,3.5,37.5,3.5s32.6-5.7,32.6-5.7s0,6,10.1,25c10.2,19,17.5,28.3,17.5,28.3
			s6.6-0.3,9.2,1.2c2.5,1.6,5,6.4,5,6.4c-0.8,0.9-18.9,13.8-73.3,12.9c-58-1-84.9-12.7-84.9-12.7s3.4-4.4,7.3-5.4
			c4.7-1.2,7.7-0.9,7.7-0.9s17.4-16.2,24.5-32.1C182.9,204.2,182.4,199.4,182.4,199.4L182.4,199.4z"/>
		<path class="st6" d="M218.7,258.8c21.4,0,39.9-3.3,47.8-5.1s13.9-4.7,20-3.2c3.4,0.9,4.8,2.9,4.8,2.9s-22.7,14.7-72.8,13.2
			c-53.4-1.6-79.4-11-79.4-11s3.5-3.8,11.3-3.5c2.1,0.1,4,0.6,16,2.7S197.9,258.8,218.7,258.8L218.7,258.8z"/>
		<path class="st3" d="M136.5,267.4c0,0,40.7,10.8,82.2,11.2c55.5,0.6,77.3-13.1,77.3-13.1s13,9.2,18.3,13.5s12.1,12.4,12.1,12.4
			s-23.2,29.6-108.2,29S107,295,107,295s4.5-9.1,13.8-16.6C126.5,273.8,136.5,267.4,136.5,267.4L136.5,267.4z"/>
		<path class="st6" d="M135.9,279.6c-6.3-1.3-18.8,8.4-17.3,14.5c0.8,3.1,3,6.6,15.2,10c11.2,3.1,28.5,3,28.5-2.2
			c0-6.7-15-6.1-18.8-12C140.4,285.3,142.5,281,135.9,279.6z"/>
		<path class="st3" d="M108,317.7c0,0-5,2.6-8.9,5.6c-4.9,3.7-6.7,6.3-6.7,6.3s11.2,31.2,119,31.8c105.6,0.7,131-33.1,131-33.1
			s-3.4-3.8-7.1-6.6c-3.6-2.8-6-4.2-6-4.2s-36.2,26.7-118.7,26C132.1,342.9,108,317.7,108,317.7L108,317.7z"/>
		<path class="st6" d="M102.6,326.3c-2.9,2.5-2.8,7.7,5.7,12c9.1,4.6,23.8,11.2,44.8,14.2c21.4,3.1,43.7,2.1,42.3-3.4
			c-0.9-3.8-19.5,0.5-52.4-9.6c-19.3-5.9-25.3-9.1-29.2-11.3C111.3,326.8,106.8,322.7,102.6,326.3z"/>
		<path class="st6" d="M127.5,297.9c6.7,0,6.7-8,0-8S120.8,297.9,127.5,297.9z"/>
	</g>
</g>
<g>
	<path class="st7" d="M372.8,423.1H63.7c-27.5,0-49.9-22.3-49.9-49.9V64.1c0-27.5,22.3-49.9,49.9-49.9h309.1
		c27.5,0,49.9,22.3,49.9,49.9v309.1C422.7,400.8,400.3,423.1,372.8,423.1z"/>
	
		<linearGradient id="SVGID_1_" gradientUnits="userSpaceOnUse" x1="3.8" y1="685.9256" x2="432.7" y2="685.9256" gradientTransform="matrix(1 0 0 1 0 -467.2756)">
		<stop  offset="0" style="stop-color:#818E70"/>
		<stop  offset="1" style="stop-color:#0B5500"/>
	</linearGradient>
	<path class="st8" d="M372.8,433.1H63.7c-33,0-59.9-26.9-59.9-59.9V64.1c0-33,26.9-59.9,59.9-59.9h309.1c33,0,59.9,26.9,59.9,59.9
		v309.1C432.7,406.2,405.8,433.1,372.8,433.1z M63.7,24.2c-22,0-39.9,17.9-39.9,39.9v309.1c0,22,17.9,39.9,39.9,39.9h309.1
		c22,0,39.9-17.9,39.9-39.9V64.1c0-22-17.9-39.9-39.9-39.9L63.7,24.2L63.7,24.2z"/>
</g>
</svg>
