<svg version="1.1" id="set_rotate" xmlns="http://www.w3.org/2000/svg" xmlns:xlink="http://www.w3.org/1999/xlink" x="0px" y="0px"
	 viewBox="0 0 220.7 226.1" enable-background="new 0 0 220.7 226.1" xml:space="preserve">
<g id="sett">
	<g opacity="0.5">
		<g>
			<g>
				<path fill="#EDF0F2" d="M215.6,137.5l-2.4,7.4c-4.8,15-12.9,29-23.5,40.5l-5.2,5.7c-0.9,1-2.4,1.1-3.4,0.3l-6-4.8
					c-4.5-3.5-10.3-5.1-16-4.3c-5.6,0.8-10.6,3.7-14,8.2s-4.9,10.1-4.1,15.7l1.1,7.6c0.2,1.3-0.6,2.5-1.9,2.8l-7.5,1.7
					c-7.5,1.6-15.3,2.5-22.9,2.5c-8,0-16.1-0.9-23.9-2.7l-7.5-1.7c-1.3-0.3-2.1-1.5-1.9-2.8l1.1-7.6c1.3-8.5-2.7-16.8-10.1-21
					c-7.5-4.3-16.7-3.7-23.5,1.7l-6.1,4.7c-1,0.8-2.5,0.7-3.4-0.3l-5.2-5.7c-10.5-11.5-18.5-25.5-23-40.4l-2.2-7.3
					c-0.4-1.2,0.2-2.5,1.4-3l7.1-2.9c8-3.2,13.2-10.9,13.2-19.5c0.1-8.5-5-16.1-12.8-19.3l-7.1-3c-1.2-0.5-1.8-1.8-1.4-3.1l2.4-7.3
					c4.8-14.9,12.9-28.8,23.5-40.2l5.1-5.6c0.9-1,2.3-1.1,3.4-0.3l6,4.6c4.4,3.4,9.9,4.8,15.4,4.2c5.6-0.7,10.7-3.5,14.1-8
					c3.5-4.5,5-10,4.4-15.7l-1-7.5c-0.2-1.3,0.7-2.5,2-2.8l7.4-1.6c15.2-3.4,31.4-3.4,46.6,0l7.5,1.7c1.3,0.3,2.1,1.5,1.9,2.8
					l-1,7.6c-1.2,8.4,2.8,16.6,10.2,20.8c7.5,4.3,16.7,3.7,23.5-1.6l6-4.7c1-0.8,2.5-0.7,3.4,0.3l5.2,5.6
					c10.6,11.5,18.6,25.4,23.3,40.3l2.3,7.3c0.4,1.2-0.2,2.6-1.5,3.1l-7.1,2.9c-8.1,3.2-13.3,10.9-13.4,19.5
					c-0.1,8.5,5.1,16.3,13,19.4l0,0l7.2,2.9C215.4,134.9,216,136.3,215.6,137.5z"/>
			</g>
		</g>
	</g>
	<g>
		
			<linearGradient id="SVGID_1_" gradientUnits="userSpaceOnUse" x1="17.8576" y1="373.4255" x2="202.8576" y2="373.4255" gradientTransform="matrix(1 0 0 -1 0 485.2756)">
			<stop  offset="0" style="stop-color:#818E70"/>
			<stop  offset="1" style="stop-color:#434A3A"/>
		</linearGradient>
		<polygon display="none" fill="url(#SVGID_1_)" stroke="#000000" stroke-width="5" stroke-miterlimit="10" points="17.9,80.2 
			39.5,108.9 22.6,138.6 26.9,165.8 39.5,178.8 80.8,180.6 90.4,211.4 129,211.4 143.8,175.8 174.7,178 187.7,175.4 202.9,145.8 
			183.8,119.3 193.3,86.5 202.9,80.2 184.6,47.2 146.9,50.7 129.5,25.5 126.9,12.4 91.3,15.7 77.8,39.4 58.3,53.7 39.5,49.4 		"/>
		<g>
			
				<linearGradient id="SVGID_00000095331740102978050410000014960891123735633030_" gradientUnits="userSpaceOnUse" x1="141.5912" y1="611.2628" x2="78.6568" y2="548.3284" gradientTransform="matrix(1 0 0 1 0 -467.2756)">
				<stop  offset="0" style="stop-color:#818E70"/>
				<stop  offset="1" style="stop-color:#434A3A"/>
			</linearGradient>
			
				<path fill="url(#SVGID_00000095331740102978050410000014960891123735633030_)" stroke="#000000" stroke-width="5" stroke-miterlimit="10" d="
				M148.8,90.4C136.6,69.1,109.3,61.8,88,74s-28.6,39.5-16.4,60.8s39.4,28.6,60.7,16.4C153.6,138.9,161,111.7,148.8,90.4z
				 M123.1,135.1c-12.5,7.2-28.4,2.9-35.6-9.6s-2.9-28.4,9.6-35.6s28.4-2.9,35.6,9.6c7.2,12.3,3,28.2-9.3,35.4
				C123.3,135,123.2,135.1,123.1,135.1z"/>
			
				<linearGradient id="SVGID_00000118395783429393855680000016669398598940538791_" gradientUnits="userSpaceOnUse" x1="185.0575" y1="654.9256" x2="35.1576" y2="505.0256" gradientTransform="matrix(1 0 0 1 0 -467.2756)">
				<stop  offset="0" style="stop-color:#818E70"/>
				<stop  offset="1" style="stop-color:#434A3A"/>
			</linearGradient>
			
				<path fill="url(#SVGID_00000118395783429393855680000016669398598940538791_)" stroke="#000000" stroke-width="5" stroke-miterlimit="10" d="
				M191.7,112.4c0.1-9.6,6-18.3,14.9-21.8l7.1-2.9l-2.3-7.3c-4.6-14.6-12.3-28.1-22.8-39.4l-5.2-5.6l-6,4.6
				c-7.6,5.9-18,6.6-26.3,1.8c-8.2-4.7-12.8-14-11.4-23.3l1-7.6l-7.5-1.6c-15-3.3-30.5-3.3-45.5,0l-7.4,1.6l1,7.5
				c1.6,13-7.7,24.9-20.7,26.5c-6.1,0.8-12.3-0.9-17.2-4.7l-6-4.6l-5.1,5.6C21.9,52.5,14.1,65.9,9.4,80.5L7,87.8l7.1,3
				c8.7,3.6,14.4,12.2,14.3,21.6c-0.1,9.6-5.9,18.2-14.8,21.8l-7.1,2.9l2.2,7.3c4.5,14.7,12.2,28.1,22.5,39.5l5.2,5.7l6.1-4.7
				c7.6-5.9,18-6.7,26.3-1.9c8.3,4.8,12.8,14.1,11.4,23.6l-1.1,7.6l7.5,1.7c7.7,1.7,15.5,2.6,23.4,2.6c7.5,0,15-0.8,22.4-2.4
				l7.5-1.6l-1.1-7.6c-1.8-13,7.2-24.9,20.2-26.7c6.4-0.9,12.9,0.9,17.9,4.9l6,4.8l5.2-5.7c10.5-11.4,18.3-24.9,23-39.5l2.4-7.4
				l-7.2-2.9C197.4,130.6,191.6,121.9,191.7,112.4z M180.5,167.4c-19.9-10-44.2-2-54.2,17.9c-2.5,4.9-3.9,10.2-4.2,15.6
				c-8.3,1.1-16.7,1.1-25-0.1c-0.7-13.5-8.2-25.6-19.9-32.3c-11.7-6.7-25.9-7.2-38-1.2c-5.1-6.5-9.2-13.8-12.3-21.5
				c11.2-7.4,18-19.9,18.1-33.4c0.1-13.3-6.5-25.8-17.5-33.3c3.1-7.8,7.4-15,12.5-21.6c20.1,9.8,44.3,1.4,54-18.6
				c2.2-4.6,3.6-9.6,4-14.7c8.3-1.2,16.7-1.2,25,0c1.5,22.1,20.6,38.8,42.7,37.3c5.3-0.4,10.5-1.8,15.2-4.1c2.6,3.3,5,6.8,7.1,10.5
				c2,3.5,3.8,7.2,5.3,11c-11.3,7.4-18.1,19.9-18.2,33.4s6.6,26.1,17.9,33.5C189.8,153.5,185.6,160.8,180.5,167.4L180.5,167.4z"/>
		</g>
	</g>
</g>
</svg>
