<?xml version="1.0" encoding="utf-8"?>
<!-- Generator: Adobe Illustrator 26.4.1, SVG Export Plug-In . SVG Version: 6.00 Build 0)  -->
<svg version="1.1" id="Layer_1" xmlns="http://www.w3.org/2000/svg" xmlns:xlink="http://www.w3.org/1999/xlink" x="0px" y="0px"
	 viewBox="0 0 48 48" style="enable-background:new 0 0 48 48;" xml:space="preserve">
<style type="text/css">
	.st0{fill:#616161;}
	.st1{fill:#424242;}
	.st2{fill:#9CCC65;}
	.st3{fill:#33691E;}
	.st4{fill:#FF5252;}
	.st5{fill:#E0E0E0;}
	.st6{fill:#BDBDBD;}
</style>
<path class="st0" d="M43.3,14.4H4.7v28.8c0,2.6,2.2,4.8,4.8,4.8h29c2.7,0,4.8-2.2,4.8-4.8V14.4z"/>
<path class="st1" d="M38.5,0h-29C6.8,0,4.7,2.2,4.7,4.8v10.8h38.7V4.8C43.3,2.2,41.2,0,38.5,0z"/>
<path class="st2" d="M39.6,13.5H8.5c-0.8,0-1.3-0.6-1.3-1.6V4.1c0-0.9,0.5-1.6,1.3-1.6h31.1c0.8,0,1.3,0.6,1.3,1.6V12
	C40.9,12.9,40.4,13.5,39.6,13.5z"/>
<g>
	<rect x="35.7" y="9.2" class="st3" width="2.4" height="2.4"/>
	<rect x="30.9" y="9.2" class="st3" width="2.4" height="2.4"/>
</g>
<path class="st4" d="M39.6,22.5h-3.9c-0.8,0-1.3-0.5-1.3-1.2v-2.5c0-0.7,0.5-1.2,1.3-1.2h3.9c0.8,0,1.3,0.5,1.3,1.2v2.5
	C40.9,22,40.4,22.5,39.6,22.5z"/>
<g>
	<path class="st5" d="M12.3,22.5H8.4c-0.8,0-1.3-0.5-1.3-1.2v-2.5c0-0.7,0.5-1.2,1.3-1.2h3.9c0.8,0,1.3,0.5,1.3,1.2v2.5
		C13.6,22,13.1,22.5,12.3,22.5z"/>
	<path class="st5" d="M21.4,22.5h-3.9c-0.8,0-1.3-0.5-1.3-1.2v-2.5c0-0.7,0.5-1.2,1.3-1.2h3.9c0.8,0,1.3,0.5,1.3,1.2v2.5
		C22.7,22,22.2,22.5,21.4,22.5z"/>
	<path class="st5" d="M30.5,22.5h-3.9c-0.8,0-1.3-0.5-1.3-1.2v-2.5c0-0.7,0.5-1.2,1.3-1.2h3.9c0.8,0,1.3,0.5,1.3,1.2v2.5
		C31.8,22,31.3,22.5,30.5,22.5z"/>
	<path class="st5" d="M12.3,30H8.4c-0.8,0-1.3-0.5-1.3-1.2v-2.5c0-0.7,0.5-1.2,1.3-1.2h3.9c0.8,0,1.3,0.5,1.3,1.2v2.5
		C13.6,29.5,13.1,30,12.3,30z"/>
	<path class="st5" d="M21.4,30h-3.9c-0.8,0-1.3-0.5-1.3-1.2v-2.5c0-0.7,0.5-1.2,1.3-1.2h3.9c0.8,0,1.3,0.5,1.3,1.2v2.5
		C22.7,29.5,22.2,30,21.4,30z"/>
	<path class="st5" d="M30.5,30h-3.9c-0.8,0-1.3-0.5-1.3-1.2v-2.5c0-0.7,0.5-1.2,1.3-1.2h3.9c0.8,0,1.3,0.5,1.3,1.2v2.5
		C31.8,29.5,31.3,30,30.5,30z"/>
	<path class="st5" d="M12.3,37.4H8.4c-0.8,0-1.3-0.5-1.3-1.2v-2.5c0-0.7,0.5-1.2,1.3-1.2h3.9c0.8,0,1.3,0.5,1.3,1.2v2.5
		C13.6,36.9,13.1,37.4,12.3,37.4z"/>
	<path class="st5" d="M21.4,37.4h-3.9c-0.8,0-1.3-0.5-1.3-1.2v-2.5c0-0.7,0.5-1.2,1.3-1.2h3.9c0.8,0,1.3,0.5,1.3,1.2v2.5
		C22.7,36.9,22.2,37.4,21.4,37.4z"/>
	<path class="st5" d="M30.5,37.4h-3.9c-0.8,0-1.3-0.5-1.3-1.2v-2.5c0-0.7,0.5-1.2,1.3-1.2h3.9c0.8,0,1.3,0.5,1.3,1.2v2.5
		C31.8,36.9,31.3,37.4,30.5,37.4z"/>
	<path class="st5" d="M12.3,44.8H8.4c-0.8,0-1.3-0.5-1.3-1.2v-2.5c0-0.7,0.5-1.2,1.3-1.2h3.9c0.8,0,1.3,0.5,1.3,1.2v2.5
		C13.6,44.3,13.1,44.8,12.3,44.8z"/>
	<path class="st5" d="M21.4,44.8h-3.9c-0.8,0-1.3-0.5-1.3-1.2v-2.5c0-0.7,0.5-1.2,1.3-1.2h3.9c0.8,0,1.3,0.5,1.3,1.2v2.5
		C22.7,44.3,22.2,44.8,21.4,44.8z"/>
	<path class="st5" d="M30.5,44.8h-3.9c-0.8,0-1.3-0.5-1.3-1.2v-2.5c0-0.7,0.5-1.2,1.3-1.2h3.9c0.8,0,1.3,0.5,1.3,1.2v2.5
		C31.8,44.3,31.3,44.8,30.5,44.8z"/>
</g>
<g>
	<path class="st6" d="M39.6,30h-3.9c-0.8,0-1.3-0.5-1.3-1.2v-2.5c0-0.7,0.5-1.2,1.3-1.2h3.9c0.8,0,1.3,0.5,1.3,1.2v2.5
		C40.9,29.5,40.4,30,39.6,30z"/>
	<path class="st6" d="M39.6,37.4h-3.9c-0.8,0-1.3-0.5-1.3-1.2v-2.5c0-0.7,0.5-1.2,1.3-1.2h3.9c0.8,0,1.3,0.5,1.3,1.2v2.5
		C40.9,36.9,40.4,37.4,39.6,37.4z"/>
	<path class="st6" d="M39.6,44.8h-3.9c-0.8,0-1.3-0.5-1.3-1.2v-2.5c0-0.7,0.5-1.2,1.3-1.2h3.9c0.8,0,1.3,0.5,1.3,1.2v2.5
		C40.9,44.3,40.4,44.8,39.6,44.8z"/>
</g>
</svg>
